<svg width="192" height="54" viewBox="0 0 192 54" fill="none" xmlns="http://www.w3.org/2000/svg">
<path d="M110.042 27.9244C105.014 27.9244 102.462 25.243 102.462 20.9373V10.3922H106.303V20.8857C106.303 23.3609 107.18 24.1859 110.042 24.1859C112.878 24.1859 113.754 23.3609 113.754 20.8857V10.3922H117.622V20.9373C117.622 25.243 115.069 27.9244 110.042 27.9244ZM123.88 27.6665H120.013V10.3922H127.954C132.079 10.3922 134.374 12.3001 134.374 15.6519C134.374 18.4622 132.981 20.138 130.016 20.3959V20.6537C131.512 21.1178 132.234 22.0202 132.904 23.3351L135.096 27.6665H130.584L128.547 23.6702C127.773 22.1749 127.258 21.5303 125.427 21.5303H123.88V27.6665ZM123.88 13.8729V18.3332H128.134C129.939 18.3332 130.532 17.7918 130.532 16.0902C130.532 14.4401 129.939 13.8729 128.134 13.8729H123.88ZM145.123 27.6665H136.202V10.3922H144.711C148.398 10.3922 150.383 11.7071 150.383 14.6979C150.383 16.7605 149.223 18.1012 146.928 18.3848V18.6426C149.712 18.8489 151.079 20.6021 151.079 22.9225C151.079 25.836 149.068 27.6665 145.123 27.6665ZM140.07 13.8729V17.2246H144.453C145.897 17.2246 146.515 16.9152 146.515 15.5487C146.515 14.1565 145.871 13.8729 144.453 13.8729H140.07ZM140.07 20.3701V24.1859H144.994C146.412 24.1859 147.186 23.9281 147.186 22.3038C147.186 20.6279 146.438 20.3701 144.994 20.3701H140.07ZM155.38 27.6665H151.358L157.726 10.3922H163.347L169.715 27.6665H165.512L164.12 23.8249H156.798L155.38 27.6665ZM159.041 17.6887L158.061 20.3701H162.857L161.877 17.6887L160.614 13.7955H160.356L159.041 17.6887ZM174.388 27.6665H170.52V10.3922H174.646L180.24 19.0552L181.684 21.3756H181.942L181.891 19.0552V10.3922H185.758V27.6665H181.633L176.27 19.4935L174.594 16.8379H174.336L174.388 19.4935V27.6665ZM109.139 53.6665H102.539V36.3922H109.139C114.683 36.3922 118.086 39.615 118.086 45.0294C118.086 50.4437 114.683 53.6665 109.139 53.6665ZM109.088 39.8729H106.406V50.1859H109.088C112.594 50.1859 113.935 49.1288 113.935 45.0294C113.935 40.9299 112.594 39.8729 109.088 39.8729ZM133.011 53.6665H119.836V36.3922H133.011V39.8729H123.704V43.2504H132.625V46.7052H123.704V50.1859H133.011V53.6665ZM142.293 53.9244C137.214 53.9244 134.868 51.8618 134.868 48.0459V47.7108H138.658V47.9686C138.658 49.8765 139.354 50.4179 142.474 50.4179C144.665 50.4179 145.207 49.9796 145.207 48.8194C145.207 47.6592 144.949 47.2467 142.525 46.8342L139.483 46.2927C136.183 45.7255 134.791 44.0496 134.791 41.3682C134.791 38.7384 136.724 36.1344 141.675 36.1344C146.599 36.1344 148.662 38.6869 148.662 42.1159V42.3222H144.846V42.0386C144.846 40.2338 144.098 39.6408 141.546 39.6408C139.328 39.6408 138.632 40.1307 138.632 41.2135C138.632 42.3222 139.096 42.58 141.107 42.9668L144.175 43.5598C147.811 44.2559 149.048 46.1638 149.048 48.6905C149.048 51.4492 147.192 53.9244 142.293 53.9244ZM154.472 53.6665H150.604V36.3922H154.472V53.6665ZM163.966 53.9244C159.016 53.9244 156.308 50.5469 156.308 45.0294C156.308 39.6408 159.454 36.1344 164.713 36.1344C169.844 36.1344 172.603 38.6611 172.603 42.7605V42.8894H168.504V42.7863C168.504 40.6205 167.446 39.8729 164.636 39.8729C161.671 39.8729 160.434 40.9557 160.434 45.0294C160.434 49.1804 161.748 50.2375 164.997 50.2375C167.73 50.2375 168.942 49.7734 168.942 47.7108H164.224V44.4879H172.655V53.6665H169.071V51.0367H168.916C168.4 52.3516 167.034 53.9244 163.966 53.9244ZM178.819 53.6665H174.952V36.3922H179.077L184.672 45.0552L186.116 47.3756H186.373L186.322 45.0552V36.3922H190.189V53.6665H186.064L180.701 45.4935L179.025 42.8379H178.768L178.819 45.4935V53.6665Z" fill="#2F2F2F"/>
<path d="M55.9834 30.6279H67.0518V19.5391H78.6689V30.6279H89.7676V42.2451H78.6689V53.335H67.0518V42.2451H55.9834V53.3359H44.3662V42.2451H30.5361L40.0537 30.6279H44.3662V17.6865L14.7861 53.3359H0L44.5166 0H55.9834V30.6279Z" fill="#2F2F2F"/>
</svg>
